<svg width="155" height="155" viewBox="0 0 155 155" fill="none" xmlns="http://www.w3.org/2000/svg">
<rect width="155" height="155" fill="white"/>
<path d="M1.44772 76.8522C1.44772 88.2141 12.5878 98.8204 30.1502 104.799C26.6431 122.383 29.522 136.556 39.1368 142.078C49.0194 147.754 63.7426 143.825 77.7171 131.659C91.339 143.334 105.106 147.928 114.712 142.39C124.586 136.698 127.588 121.564 123.984 103.431C142.277 97.4077 152.509 88.3637 152.509 76.8522C152.509 65.754 141.349 56.153 124.023 50.2127C127.903 31.3306 124.616 17.5018 114.602 11.7513C104.949 6.20723 91.0219 11.0394 77.2 23.0192C62.82 10.3038 49.0307 6.42188 39.0282 12.1883C29.3837 17.7483 26.6318 32.1791 30.1502 50.088C13.1803 55.9803 1.44772 65.7989 1.44772 76.8522Z" fill="white"/>
<path d="M120.354 56.1116C118.926 55.6238 117.486 55.1719 116.035 54.7563C116.276 53.7827 116.498 52.8047 116.702 51.8228C119.971 36.0185 117.834 23.2865 110.535 19.0953C103.536 15.0757 92.0906 19.2668 80.5308 29.2853C79.3917 30.2747 78.2779 31.2927 77.1905 32.3382C76.4622 31.643 75.7211 30.9613 74.9676 30.2935C62.8526 19.5802 50.7091 15.0662 43.4176 19.2698C36.4258 23.3007 34.3549 35.2705 37.298 50.2482C37.5908 51.7314 37.9215 53.207 38.2895 54.6735C36.5713 55.1596 34.9118 55.6776 33.3242 56.2286C19.1211 61.1601 10.0502 68.8896 10.0502 76.9065C10.0502 85.1872 19.7873 93.4926 34.5817 98.5282C35.7813 98.9346 36.9909 99.3112 38.2094 99.6576C37.8136 101.237 37.4621 102.828 37.1555 104.428C34.3496 119.145 36.541 130.831 43.5143 134.837C50.7168 138.973 62.8051 134.722 74.5763 124.475C75.5066 123.665 76.4406 122.805 77.3757 121.905C78.5535 123.037 79.7628 124.135 81.0022 125.2C92.4041 134.971 103.665 138.917 110.632 134.9C117.828 130.752 120.166 118.198 117.13 102.924C116.898 101.757 116.628 100.566 116.325 99.3524C117.174 99.1029 118.007 98.8451 118.82 98.5767C134.2 93.5021 144.206 85.2977 144.206 76.9065C144.206 68.8607 134.843 61.0791 120.354 56.1116V56.1116Z" fill="#53C1DE"/>
<path d="M117.017 93.1591C116.284 93.401 115.531 93.6346 114.764 93.861C113.066 88.5079 110.774 82.8155 107.971 76.9349C110.647 71.1934 112.849 65.5742 114.5 60.2554C115.872 60.6516 117.204 61.0685 118.488 61.509C130.903 65.7646 138.475 72.0579 138.475 76.9066C138.475 82.0716 130.297 88.777 117.018 93.1591H117.017ZM111.508 104.033C112.85 110.787 113.042 116.893 112.152 121.667C111.353 125.956 109.747 128.815 107.76 129.961C103.532 132.398 94.4903 129.23 84.7401 120.874C83.6221 119.916 82.4958 118.893 81.3666 117.811C85.1468 113.693 88.9247 108.906 92.6117 103.59C99.0976 103.017 105.225 102.08 110.781 100.801C111.055 101.9 111.298 102.978 111.508 104.033V104.033ZM55.7866 129.54C51.656 130.993 48.3662 131.034 46.3778 129.892C42.1457 127.462 40.3871 118.078 42.7864 105.492C43.0717 104.005 43.3983 102.525 43.766 101.056C49.2609 102.266 55.3436 103.137 61.8449 103.662C65.5563 108.864 69.4434 113.645 73.3608 117.832C72.5283 118.635 71.676 119.416 70.8048 120.176C65.5996 124.708 60.3838 127.923 55.7872 129.54H55.7866ZM36.4353 93.1272C29.8936 90.9004 24.4913 88.0065 20.7883 84.849C17.461 82.0107 15.7808 79.1931 15.7808 76.9066C15.7808 72.0419 23.064 65.8362 35.211 61.6184C36.7356 61.0913 38.2754 60.6088 39.8284 60.1715C41.5075 65.6097 43.7096 71.2957 46.3671 77.0455C43.6752 82.8811 41.4416 88.6576 39.7471 94.1596C38.6348 93.8426 37.5306 93.4983 36.4353 93.1272V93.1272ZM42.9223 49.1519C40.4008 36.3189 42.0751 26.6386 46.2887 24.2095C50.7773 21.622 60.7014 25.3117 71.1616 34.5615C71.8302 35.1528 72.5017 35.7719 73.1744 36.4123C69.2772 40.5804 65.4257 45.3256 61.7464 50.4972C55.4369 51.0796 49.3969 52.015 43.8444 53.268C43.5023 51.9037 43.1949 50.5311 42.9223 49.1513V49.1519ZM100.791 63.3828C99.4794 61.1267 98.1192 58.8989 96.7114 56.7011C100.992 57.2392 105.093 57.9547 108.944 58.8304C107.788 62.5207 106.347 66.3796 104.65 70.3354C103.41 67.9925 102.124 65.6746 100.791 63.3828V63.3828ZM77.1921 40.4911C79.8354 43.343 82.4828 46.5277 85.0869 49.9827C79.8045 49.7341 74.5133 49.7329 69.2309 49.9792C71.8373 46.5561 74.5073 43.3761 77.1921 40.4911V40.4911ZM53.4419 63.4219C52.1259 65.6954 50.8633 67.9991 49.6552 70.3313C47.9862 66.389 46.5583 62.513 45.3922 58.7701C49.22 57.9168 53.3018 57.2197 57.5547 56.6905C56.131 58.9019 54.7598 61.1463 53.4419 63.4219V63.4219ZM57.677 97.5301C53.2834 97.0416 49.1398 96.38 45.3133 95.5504C46.4977 91.7412 47.9571 87.7818 49.6617 83.755C50.8749 86.0889 52.143 88.3941 53.4651 90.6686C54.8141 92.9887 56.2185 95.2766 57.677 97.5301V97.5301ZM77.3506 113.725C74.6343 110.806 71.9252 107.578 69.2789 104.105C71.8474 104.205 74.4663 104.256 77.128 104.256C79.8627 104.256 82.5659 104.195 85.2264 104.077C82.614 107.613 79.9761 110.846 77.3506 113.725ZM104.705 83.5499C106.498 87.6204 108.009 91.5585 109.21 95.3032C105.32 96.1872 101.12 96.8991 96.6954 97.4278C98.1134 95.1889 99.4866 92.9222 100.814 90.629C102.164 88.2983 103.461 85.938 104.705 83.5499V83.5499ZM95.8493 87.7777C93.8171 91.2936 91.6706 94.7427 89.4133 98.1196C85.433 98.4028 81.3197 98.5489 77.128 98.5489C72.9535 98.5489 68.8924 98.4194 64.9816 98.1669C62.6657 94.7978 60.4786 91.3428 58.4251 87.809C56.3811 84.294 54.4719 80.703 52.7016 77.0437C54.4674 73.3834 56.3708 69.7904 58.4079 66.2726V66.2737C60.4442 62.7551 62.6141 59.3148 64.9127 55.9602C68.9025 55.6598 72.9933 55.5025 77.1286 55.5025C81.2823 55.5025 85.3784 55.661 89.367 55.9638C91.6424 59.3132 93.7984 62.7415 95.8309 66.2424C97.8749 69.7524 99.8038 73.3278 101.614 76.9627C99.8224 80.6347 97.8997 84.242 95.8499 87.7777H95.8493ZM107.672 24.0398C112.164 26.6203 113.912 37.0255 111.089 50.671C110.904 51.5599 110.703 52.4454 110.486 53.3271C104.92 52.0481 98.8761 51.0961 92.5482 50.5048C88.8618 45.2771 85.0423 40.5236 81.2081 36.4093C82.2128 35.4446 83.2414 34.505 84.2931 33.5912C94.1976 25.0066 103.454 21.6173 107.672 24.0398V24.0398Z" fill="white"/>
<path d="M77.128 64.9758C83.7445 64.9758 89.1076 70.3177 89.1076 76.9066C89.1076 83.4961 83.7445 88.838 77.128 88.838C70.5122 88.838 65.1484 83.4961 65.1484 76.9066C65.1484 70.3177 70.5122 64.9758 77.128 64.9758" fill="#53C1DE"/>
</svg>
