<svg width="33" height="33" viewBox="0 0 33 33" fill="none" xmlns="http://www.w3.org/2000/svg">
<rect width="33" height="33" rx="16.5" fill="url(#paint0_linear)"/>
<path fill-rule="evenodd" clip-rule="evenodd" d="M15.5972 7.07363C15.0394 7.28259 14.8217 7.64727 14.8217 8.37251V8.85778L14.6071 8.928C14.163 9.07344 13.4036 9.42854 12.9415 9.70685L12.4628 9.99514L12.0548 9.58437C11.5859 9.11219 11.4754 9.04303 11.1901 9.04303C10.8857 9.04303 10.7302 9.15 10.1502 9.75858C9.73623 10.1929 9.61742 10.3556 9.58504 10.5328C9.51897 10.8942 9.63103 11.147 10.0432 11.566C10.2487 11.775 10.4169 11.9793 10.4169 12.02C10.4169 12.0606 10.3303 12.2331 10.2244 12.4033C9.30079 13.8879 8.87027 15.7473 9.03416 17.5435C9.2151 19.5264 9.967 21.1558 11.3574 22.578C12.7606 24.0134 14.3092 24.7631 16.2863 24.9644C17.8 25.1185 19.4731 24.7666 20.7995 24.0151C23.0659 22.7309 24.5816 20.4852 24.9207 17.9089C25.0199 17.1549 25.0268 16.3857 24.937 16.0781C24.7647 15.4879 24.0239 15.2347 23.5001 15.587C23.2111 15.7814 23.1164 16.0227 23.116 16.5654C23.1143 19.0813 21.8437 21.2752 19.7561 22.3669C18.8294 22.8516 18.0462 23.0426 16.9954 23.0403C15.3585 23.0366 13.9798 22.4743 12.8206 21.3376C12.2606 20.7885 11.8748 20.2642 11.5714 19.64C10.9993 18.4633 10.7905 17.2394 10.9555 16.03C11.0698 15.1921 11.2004 14.7547 11.5601 14.0044C12.285 12.4923 13.4898 11.422 15.0826 10.8747C15.8 10.6283 16.4126 10.5473 17.2759 10.5846C18.2423 10.6264 18.8424 10.7836 19.7413 11.2304C20.4172 11.5664 20.9697 11.4347 21.2364 10.874C21.3948 10.5407 21.3627 10.1264 21.157 9.84953C20.9926 9.62835 20.3138 9.25862 19.6178 9.0112L19.1796 8.85543L19.1601 8.28872C19.1378 7.63958 19.0497 7.45316 18.634 7.17562L18.397 7.01738L17.1099 7.00323C16.1055 6.99225 15.7732 7.00769 15.5972 7.07363ZM23.3166 11.3325C22.9812 11.4082 23.3239 11.1377 19.2324 14.5556L17.036 16.3904L16.0289 15.3642C15.1652 14.484 14.9856 14.3281 14.7668 14.2684C14.0523 14.0734 13.385 14.7803 13.5703 15.5359C13.6288 15.7742 13.762 15.9343 14.7334 16.9338C15.3367 17.5547 15.9187 18.1302 16.0268 18.2127C16.4531 18.5384 17.0347 18.6325 17.543 18.4579C17.8763 18.3434 18.0156 18.2495 18.6334 17.7235C19.0823 17.3412 19.8347 16.7141 20.914 15.8224C21.1971 15.5884 21.8021 15.088 22.2583 14.7103C22.7145 14.3326 23.1898 13.94 23.3147 13.8379C23.8484 13.4009 24.2283 13.0544 24.3344 12.9078C24.4845 12.7003 24.5231 12.2433 24.4127 11.9787C24.2344 11.5512 23.7121 11.2433 23.3166 11.3325Z" fill="white"/>
<defs>
<linearGradient id="paint0_linear" x1="3" y1="30.5" x2="29.5" y2="1.5" gradientUnits="userSpaceOnUse">
<stop stop-color="#2022AA"/>
<stop offset="1" stop-color="#795FC0"/>
</linearGradient>
</defs>
</svg>
